<?xml version="1.0" encoding="UTF-8"?>
<svg width="309px" height="42px" viewBox="0 0 309 42" version="1.1" xmlns="http://www.w3.org/2000/svg" xmlns:xlink="http://www.w3.org/1999/xlink">
    <!-- Generator: Sketch 48.2 (47327) - http://www.bohemiancoding.com/sketch -->
    <title>logo</title>
    <desc>Created with Sketch.</desc>
    <defs></defs>
    <g id="erika.carrington-resume" stroke="none" stroke-width="1" fill="none" fill-rule="evenodd" transform="translate(-142.000000, -62.000000)">
        <g id="logo" transform="translate(143.000000, 55.000000)">
            <path d="M5.49658203,26.4759521 C5.49658203,26.6903076 17.9050293,26.4759521 19.9003906,26.4759521 C19.9003906,25.3417969 20.4049072,19.0483398 11.599997,18.7999992 C2.79508686,18.5516586 5.49658203,25.3451537 5.49658203,26.4759521 Z" id="Path-24" fill="#BEE173"></path>
            <path d="M238.534668,27.6203613 C238.534668,27 238.312256,21.7138672 237.212891,20.7080078 C236.113525,19.7021484 234.944824,17.5615234 232.06958,18.1123047 C229.194336,18.6630859 226.709229,20.1115723 226.567383,23.0253906 C226.425537,25.939209 227.27002,29.1213379 228.14624,29.861084 C229.022461,30.6008301 231.574707,32.1291504 233.941895,31.4746094 C236.309082,30.8200684 238.534668,28.2407227 238.534668,27.6203613 Z" id="Path-23" fill="#BEE173"></path>
            <text id="erika-carrington" font-family="Lora-Regular, Lora" font-size="40" font-weight="normal" letter-spacing="0.577777863" fill="#434343">
                <tspan x="0" y="38">erika carrington</tspan>
            </text>
            <path d="M21.5,27 L0.5,27" id="Line-6" stroke="#FFFFFF" stroke-width="2" stroke-linecap="square"></path>
            <g id="Group-11" transform="translate(262.000000, 17.000000)">
                <rect id="Rectangle-4" fill="#FFFFFF" x="0" y="0" width="20" height="23"></rect>
                <circle id="Oval" stroke="#F09595" stroke-width="2" fill="#FFFFFF" cx="10.5" cy="10.5" r="9.5"></circle>
                <circle id="Oval-6" fill="#BEE173" cx="10.5" cy="10.5" r="6.5"></circle>
            </g>
            <path d="M223.5,27 L242.5,27" id="Line" stroke="#FFFFFF" stroke-width="2" stroke-linecap="square"></path>
        </g>
    </g>
</svg>