<?xml version="1.0" encoding="UTF-8"?>
<svg width="307px" height="42px" viewBox="0 0 307 42" version="1.1" xmlns="http://www.w3.org/2000/svg" xmlns:xlink="http://www.w3.org/1999/xlink">
    <!-- Generator: Sketch 50 (54983) - http://www.bohemiancoding.com/sketch -->
    <title>Group 3</title>
    <desc>Created with Sketch.</desc>
    <defs>
        <linearGradient x1="50%" y1="0%" x2="50%" y2="100%" id="linearGradient-1">
            <stop stop-color="#FF6D73" offset="0%"></stop>
            <stop stop-color="#FF3B3F" offset="100%"></stop>
        </linearGradient>
        <linearGradient x1="50%" y1="0%" x2="50%" y2="42.273302%" id="linearGradient-2">
            <stop stop-color="#FF6D73" offset="0%"></stop>
            <stop stop-color="#FF3B3F" offset="100%"></stop>
        </linearGradient>
    </defs>
    <g id="Sketches" stroke="none" stroke-width="1" fill="none" fill-rule="evenodd">
        <g id="Desktop" transform="translate(-147.000000, -685.000000)">
            <g id="Group-3" transform="translate(147.000000, 685.000000)">
                <g id="Group-11-Copy" transform="translate(262.000000, 12.000000)">
                    <circle id="Oval" stroke="url(#linearGradient-1)" stroke-width="2" cx="9.5" cy="9.5" r="9.5"></circle>
                    <circle id="Oval-6" fill="url(#linearGradient-2)" cx="9.54998779" cy="9.45001221" r="6.25"></circle>
                </g>
                <path d="M14.88,11.36 C16.1066728,12.02667 17.0799964,13.0199934 17.8,14.34 C18.5200036,15.6600066 18.88,17.2799904 18.88,19.2 L4.8,19.44 C4.7733332,22.640016 5.2999946,25.1333244 6.38,26.92 C7.4600054,28.7066756 9.133322,29.6 11.4,29.6 C12.6266728,29.6 13.8866602,29.2800032 15.18,28.64 C16.4733398,27.9999968 17.4666632,27.213338 18.16,26.28 L19.12,27.08 C18.1066616,28.6266744 16.7933414,29.7733296 15.18,30.52 C13.5666586,31.2666704 11.9866744,31.64 10.44,31.64 C8.5999908,31.64 6.9400074,31.206671 5.46,30.34 C3.9799926,29.473329 2.8133376,28.2333414 1.96,26.62 C1.1066624,25.0066586 0.68,23.1466772 0.68,21.04 C0.68,19.173324 1.1066624,17.4200082 1.96,15.78 C2.8133376,14.1399918 4.006659,12.8266716 5.54,11.84 C7.073341,10.8533284 8.8133236,10.36 10.76,10.36 C12.2800076,10.36 13.6533272,10.69333 14.88,11.36 Z M37.4977779,11 C38.0311139,11.4266688 38.2977779,12.0533292 38.2977779,12.88 C38.2977779,13.3066688 38.1311129,13.7333312 37.7977779,14.16 C37.4644429,14.5866688 36.9911143,14.8 36.3777779,14.8 C35.7911083,14.8 35.3111131,14.5800022 34.9377779,14.14 C34.5644427,13.6999978 34.4177775,13.1733364 34.4977779,12.56 C33.4844395,12.5333332 32.4644497,12.919996 31.4377779,13.72 C30.4111061,14.520004 29.5377815,15.58666 28.8177779,16.92 L28.8577779,26.76 C28.8577779,27.960006 28.8044451,28.8666636 28.6977779,29.48 L31.2177779,29.36 L31.2177779,31 L23.0177779,31 L23.0177779,29.8 C23.7911151,29.8 24.3444429,29.6066686 24.6777779,29.22 C25.0111129,28.8333314 25.2111109,28.340003 25.2777779,27.74 C25.3444449,27.139997 25.3777779,26.2000064 25.3777779,24.92 L25.3777779,15.8 C25.3777779,14.6799944 25.4311107,13.8133364 25.5377779,13.2 L22.6977779,13.32 L22.6977779,11.68 L23.9377779,11.68 C24.9511163,11.68 25.6844423,11.5933342 26.1377779,11.42 C26.5911135,11.2466658 27.0177759,10.9733352 27.4177779,10.6 L28.5777779,10.6 C28.6844451,11.6400052 28.7511111,12.959992 28.7777779,14.56 C29.4444479,13.4666612 30.3977717,12.4933376 31.6377779,11.64 C32.8777841,10.7866624 34.1644379,10.36 35.4977779,10.36 C36.2977819,10.36 36.9644419,10.5733312 37.4977779,11 Z M46.4555558,2.58 C46.8688912,3.046669 47.0755558,3.61333 47.0755558,4.28 C47.0755558,4.9200032 46.855558,5.473331 46.4155558,5.94 C45.9755536,6.406669 45.4622254,6.64 44.8755558,6.64 C44.315553,6.64 43.8222246,6.406669 43.3955558,5.94 C42.968887,5.473331 42.7555558,4.9200032 42.7555558,4.28 C42.7555558,3.6399968 42.9755536,3.0800024 43.4155558,2.6 C43.855558,2.1199976 44.355553,1.88 44.9155558,1.88 C45.5288922,1.88 46.0422204,2.113331 46.4555558,2.58 Z M46.7155558,26.76 C46.7155558,27.960006 46.662223,28.8666636 46.5555558,29.48 L49.0755558,29.36 L49.0755558,31 L40.9155558,31 L40.9155558,29.8 C41.688893,29.8 42.2422208,29.6066686 42.5755558,29.22 C42.9088908,28.8333314 43.1088888,28.340003 43.1755558,27.74 C43.2422228,27.139997 43.2755558,26.2000064 43.2755558,24.92 L43.2755558,15.8 C43.2755558,15.0266628 43.3288886,14.1600048 43.4355558,13.2 L40.5955558,13.36 L40.5955558,11.68 C42.168897,11.68 43.2955524,11.5866676 43.9755558,11.4 C44.6555592,11.2133324 45.1822206,10.9466684 45.5555558,10.6 L46.7155558,10.6 L46.7155558,26.76 Z M58.1333337,19.72 L59.7333337,19.72 L64.6133337,14.6 C65.6266721,13.533328 66.4133309,12.8266684 66.9733337,12.48 L64.2533337,12.6 L64.2533337,11 L71.5333337,11 L71.5333337,12.2 C70.3599945,12.333334 69.2933385,12.7599964 68.3333337,13.48 C67.3733289,14.2000036 66.3066729,15.1733272 65.1333337,16.4 L62.0133337,19.68 C62.4933361,19.8933344 62.9133319,20.166665 63.2733337,20.5 C63.6333355,20.833335 64.0399981,21.2799972 64.4933337,21.84 L67.3333337,25.48 C67.3866673,25.5333336 67.6866643,25.9399962 68.2333337,26.7 C68.7800031,27.4600038 69.4333299,28.1666634 70.1933337,28.82 C70.9533375,29.4733366 71.6133309,29.8 72.1733337,29.8 L72.1733337,31 L68.5333337,31 C67.8933305,31 67.2933365,30.7200028 66.7333337,30.16 C66.1733309,29.5999972 65.3600057,28.6266736 64.2933337,27.24 L62.7333337,25.04 C62.1466641,24.2133292 61.5933363,23.4466702 61.0733337,22.74 C60.5533311,22.0333298 60.1200021,21.5200016 59.7733337,21.2 L58.1333337,21.28 L58.1333337,26.76 C58.1333337,27.960006 58.0800009,28.8666636 57.9733337,29.48 L60.5333337,29.36 L60.5333337,31 L52.3733337,31 L52.3733337,29.8 C53.1466709,29.8 53.6999987,29.6066686 54.0333337,29.22 C54.3666687,28.8333314 54.5600001,28.3466696 54.6133337,27.76 C54.6666673,27.1733304 54.6933337,26.2266732 54.6933337,24.92 C54.6933337,24.653332 54.7000003,23.2000132 54.7133337,20.56 C54.7266671,17.9199868 54.7333337,13.066702 54.7333337,6 C54.7333337,4.9866616 54.7733333,4.1200036 54.8533337,3.4 L52.0133337,3.56 L52.0133337,1.88 C53.5866749,1.88 54.7133303,1.7866676 55.3933337,1.6 C56.0733371,1.4133324 56.5999985,1.1466684 56.9733337,0.8 L58.1333337,0.8 L58.1333337,19.72 Z M88.4711116,12.14 C89.5377836,13.3266726 90.0577784,15.1999872 90.0311116,17.76 L89.9911116,26.76 C89.9911116,27.6133376 89.9377788,28.5199952 89.8311116,29.48 L92.6711116,29.32 L92.6711116,31 L86.9511116,31 C86.8711112,30.599998 86.7777788,29.8400056 86.6711116,28.72 C84.7244352,30.6666764 82.6311228,31.64 80.3911116,31.64 C78.4444352,31.64 76.9577834,31.2000044 75.9311116,30.32 C74.9044398,29.4399956 74.3911116,28.2933404 74.3911116,26.88 C74.3911116,25.3333256 75.0111054,24.026672 76.2511116,22.96 C77.4911178,21.893328 79.0511022,21.1000026 80.9311116,20.58 C82.811121,20.0599974 84.6977688,19.8133332 86.5911116,19.84 L86.5911116,17.36 C86.5911116,15.626658 86.3377808,14.2733382 85.8311116,13.3 C85.3244424,12.3266618 84.2444532,11.84 82.5911116,11.84 C81.7644408,11.84 80.977782,12.0133316 80.2311116,12.36 C79.4844412,12.7066684 78.93778,13.2266632 78.5911116,13.92 C78.93778,14.2933352 79.1111116,14.7999968 79.1111116,15.44 C79.1111116,15.840002 78.9644464,16.2199982 78.6711116,16.58 C78.3777768,16.9400018 77.9511144,17.12 77.3911116,17.12 C76.8311088,17.12 76.3911132,16.9400018 76.0711116,16.58 C75.75111,16.2199982 75.5911116,15.7466696 75.5911116,15.16 C75.5911116,14.2799956 75.9311082,13.473337 76.6111116,12.74 C77.291115,12.006663 78.2377722,11.4266688 79.4511116,11 C80.664451,10.5733312 82.0177708,10.36 83.5111116,10.36 C85.7511228,10.36 87.4044396,10.9533274 88.4711116,12.14 Z M121.266667,11.04 C122.386673,11.4933356 123.259998,12.0933296 123.886667,12.84 C124.513337,13.5866704 124.826667,14.3999956 124.826667,15.28 C124.826667,15.8933364 124.653336,16.399998 124.306667,16.8 C123.959999,17.200002 123.480004,17.4 122.866667,17.4 C122.279998,17.4 121.840002,17.2066686 121.546667,16.82 C121.253333,16.4333314 121.106667,16.0266688 121.106667,15.6 C121.106667,14.93333 121.306665,14.400002 121.706667,14 C121.413333,13.1733292 120.846672,12.6066682 120.006667,12.3 C119.166663,11.9933318 118.333338,11.84 117.506667,11.84 C116.279995,11.84 115.180006,12.17333 114.206667,12.84 C113.233329,13.50667 112.46667,14.4799936 111.906667,15.76 C111.346665,17.0400064 111.066667,18.5733244 111.066667,20.36 C111.066667,22.1466756 111.353331,23.7333264 111.926667,25.12 C112.500004,26.5066736 113.306662,27.5933294 114.346667,28.38 C115.386673,29.1666706 116.586661,29.56 117.946667,29.56 C119.146673,29.56 120.326662,29.2333366 121.486667,28.58 C122.646673,27.9266634 123.559997,27.1066716 124.226667,26.12 L125.266667,26.92 C124.279996,28.4666744 123.006675,29.639996 121.446667,30.44 C119.88666,31.240004 118.360008,31.64 116.866667,31.64 C115.053325,31.64 113.393342,31.2266708 111.886667,30.4 C110.379993,29.5733292 109.186672,28.3866744 108.306667,26.84 C107.426663,25.2933256 106.986667,23.4666772 106.986667,21.36 C106.986667,19.493324 107.43333,17.7133418 108.326667,16.02 C109.220005,14.3266582 110.459993,12.9600052 112.046667,11.92 C113.633342,10.8799948 115.426657,10.36 117.426667,10.36 C118.866675,10.36 120.146662,10.5866644 121.266667,11.04 Z M142.564445,12.14 C143.631117,13.3266726 144.151112,15.1999872 144.124445,17.76 L144.084445,26.76 C144.084445,27.6133376 144.031113,28.5199952 143.924445,29.48 L146.764445,29.32 L146.764445,31 L141.044445,31 C140.964445,30.599998 140.871113,29.8400056 140.764445,28.72 C138.817769,30.6666764 136.724457,31.64 134.484445,31.64 C132.537769,31.64 131.051117,31.2000044 130.024445,30.32 C128.997774,29.4399956 128.484445,28.2933404 128.484445,26.88 C128.484445,25.3333256 129.104439,24.026672 130.344445,22.96 C131.584452,21.893328 133.144436,21.1000026 135.024445,20.58 C136.904455,20.0599974 138.791103,19.8133332 140.684445,19.84 L140.684445,17.36 C140.684445,15.626658 140.431115,14.2733382 139.924445,13.3 C139.417776,12.3266618 138.337787,11.84 136.684445,11.84 C135.857775,11.84 135.071116,12.0133316 134.324445,12.36 C133.577775,12.7066684 133.031114,13.2266632 132.684445,13.92 C133.031114,14.2933352 133.204445,14.7999968 133.204445,15.44 C133.204445,15.840002 133.05778,16.2199982 132.764445,16.58 C132.471111,16.9400018 132.044448,17.12 131.484445,17.12 C130.924443,17.12 130.484447,16.9400018 130.164445,16.58 C129.844444,16.2199982 129.684445,15.7466696 129.684445,15.16 C129.684445,14.2799956 130.024442,13.473337 130.704445,12.74 C131.384449,12.006663 132.331106,11.4266688 133.544445,11 C134.757785,10.5733312 136.111105,10.36 137.604445,10.36 C139.844457,10.36 141.497773,10.9533274 142.564445,12.14 Z M164.582223,11 C165.115559,11.4266688 165.382223,12.0533292 165.382223,12.88 C165.382223,13.3066688 165.215558,13.7333312 164.882223,14.16 C164.548888,14.5866688 164.07556,14.8 163.462223,14.8 C162.875554,14.8 162.395558,14.5800022 162.022223,14.14 C161.648888,13.6999978 161.502223,13.1733364 161.582223,12.56 C160.568885,12.5333332 159.548895,12.919996 158.522223,13.72 C157.495551,14.520004 156.622227,15.58666 155.902223,16.92 L155.942223,26.76 C155.942223,27.960006 155.88889,28.8666636 155.782223,29.48 L158.302223,29.36 L158.302223,31 L150.102223,31 L150.102223,29.8 C150.87556,29.8 151.428888,29.6066686 151.762223,29.22 C152.095558,28.8333314 152.295556,28.340003 152.362223,27.74 C152.42889,27.139997 152.462223,26.2000064 152.462223,24.92 L152.462223,15.8 C152.462223,14.6799944 152.515556,13.8133364 152.622223,13.2 L149.782223,13.32 L149.782223,11.68 L151.022223,11.68 C152.035562,11.68 152.768888,11.5933342 153.222223,11.42 C153.675559,11.2466658 154.102221,10.9733352 154.502223,10.6 L155.662223,10.6 C155.76889,11.6400052 155.835556,12.959992 155.862223,14.56 C156.528893,13.4666612 157.482217,12.4933376 158.722223,11.64 C159.962229,10.7866624 161.248883,10.36 162.582223,10.36 C163.382227,10.36 164.048887,10.5733312 164.582223,11 Z M182.480001,11 C183.013337,11.4266688 183.280001,12.0533292 183.280001,12.88 C183.280001,13.3066688 183.113336,13.7333312 182.780001,14.16 C182.446666,14.5866688 181.973338,14.8 181.360001,14.8 C180.773332,14.8 180.293336,14.5800022 179.920001,14.14 C179.546666,13.6999978 179.400001,13.1733364 179.480001,12.56 C178.466663,12.5333332 177.446673,12.919996 176.420001,13.72 C175.393329,14.520004 174.520005,15.58666 173.800001,16.92 L173.840001,26.76 C173.840001,27.960006 173.786668,28.8666636 173.680001,29.48 L176.200001,29.36 L176.200001,31 L168.000001,31 L168.000001,29.8 C168.773338,29.8 169.326666,29.6066686 169.660001,29.22 C169.993336,28.8333314 170.193334,28.340003 170.260001,27.74 C170.326668,27.139997 170.360001,26.2000064 170.360001,24.92 L170.360001,15.8 C170.360001,14.6799944 170.413334,13.8133364 170.520001,13.2 L167.680001,13.32 L167.680001,11.68 L168.920001,11.68 C169.93334,11.68 170.666666,11.5933342 171.120001,11.42 C171.573337,11.2466658 171.999999,10.9733352 172.400001,10.6 L173.560001,10.6 C173.666668,11.6400052 173.733334,12.959992 173.760001,14.56 C174.426671,13.4666612 175.379995,12.4933376 176.620001,11.64 C177.860007,10.7866624 179.146661,10.36 180.480001,10.36 C181.280005,10.36 181.946665,10.5733312 182.480001,11 Z M191.437779,2.58 C191.851114,3.046669 192.057779,3.61333 192.057779,4.28 C192.057779,4.9200032 191.837781,5.473331 191.397779,5.94 C190.957777,6.406669 190.444449,6.64 189.857779,6.64 C189.297776,6.64 188.804448,6.406669 188.377779,5.94 C187.95111,5.473331 187.737779,4.9200032 187.737779,4.28 C187.737779,3.6399968 187.957777,3.0800024 188.397779,2.6 C188.837781,2.1199976 189.337776,1.88 189.897779,1.88 C190.511115,1.88 191.024444,2.113331 191.437779,2.58 Z M191.697779,26.76 C191.697779,27.960006 191.644446,28.8666636 191.537779,29.48 L194.057779,29.36 L194.057779,31 L185.897779,31 L185.897779,29.8 C186.671116,29.8 187.224444,29.6066686 187.557779,29.22 C187.891114,28.8333314 188.091112,28.340003 188.157779,27.74 C188.224446,27.139997 188.257779,26.2000064 188.257779,24.92 L188.257779,15.8 C188.257779,15.0266628 188.311112,14.1600048 188.417779,13.2 L185.577779,13.36 L185.577779,11.68 C187.15112,11.68 188.277776,11.5866676 188.957779,11.4 C189.637782,11.2133324 190.164444,10.9466684 190.537779,10.6 L191.697779,10.6 L191.697779,26.76 Z M215.075557,12.54 C216.142229,13.9933406 216.675557,16.253318 216.675557,19.32 L216.675557,26.76 C216.675557,27.960006 216.622224,28.8666636 216.515557,29.48 L219.035557,29.36 L219.035557,31 L210.875557,31 L210.875557,29.8 C211.648894,29.8 212.202222,29.6066686 212.535557,29.22 C212.868892,28.8333314 213.06889,28.340003 213.135557,27.74 C213.202224,27.139997 213.235557,26.2000064 213.235557,24.92 L213.235557,19.32 C213.20889,17.0266552 212.835561,15.3000058 212.115557,14.14 C211.395553,12.9799942 210.262231,12.4 208.715557,12.4 C207.755552,12.4 206.802228,12.6399976 205.855557,13.12 C204.908886,13.6000024 204.128893,14.2266628 203.515557,15 C203.542224,15.2933348 203.555557,15.8133296 203.555557,16.56 L203.515557,26.76 C203.515557,27.960006 203.462224,28.8666636 203.355557,29.48 L205.875557,29.36 L205.875557,31 L197.715557,31 L197.715557,29.8 C198.488894,29.8 199.042222,29.6066686 199.375557,29.22 C199.708892,28.8333314 199.902223,28.3533362 199.955557,27.78 C200.008891,27.2066638 200.04889,26.25334 200.075557,24.92 L200.115557,15.8 C200.115557,14.6799944 200.16889,13.8133364 200.275557,13.2 L197.435557,13.36 L197.435557,11.68 C199.008898,11.68 200.088887,11.5933342 200.675557,11.42 C201.262227,11.2466658 201.755555,10.9733352 202.155557,10.6 L203.315557,10.6 C203.368891,11.1066692 203.422223,11.9199944 203.475557,13.04 C204.382228,12.239996 205.415551,11.5933358 206.575557,11.1 C207.735563,10.6066642 208.875551,10.36 209.995557,10.36 C212.315569,10.36 214.008885,11.0866594 215.075557,12.54 Z M243.013335,8.5 C243.38667,8.8600018 243.573335,9.3466636 243.573335,9.96 C243.573335,10.3333352 243.433336,10.6999982 243.153335,11.06 C242.873333,11.4200018 242.466671,11.6 241.933335,11.6 C241.479999,11.6 241.093336,11.466668 240.773335,11.2 C240.453333,10.933332 240.253335,10.600002 240.173335,10.2 C239.533332,10.2800004 239.02667,10.5666642 238.653335,11.06 C238.28,11.5533358 238.013336,12.1466632 237.853335,12.84 C238.520005,13.4533364 239.04,14.1733292 239.413335,15 C239.78667,15.8266708 239.973335,16.6933288 239.973335,17.6 C239.973335,19.066674 239.586672,20.3866608 238.813335,21.56 C238.039998,22.7333392 237.006675,23.65333 235.713335,24.32 C234.419995,24.98667 233.026676,25.32 231.533335,25.32 C231.186666,25.32 230.746671,25.2933336 230.213335,25.24 C229.813333,25.1599996 229.360004,25.12 228.853335,25.12 C227.97333,25.12 227.233338,25.3133314 226.633335,25.7 C226.033332,26.0866686 225.733335,26.5599972 225.733335,27.12 C225.733335,27.8933372 226.219997,28.4066654 227.193335,28.66 C228.166673,28.9133346 229.826656,29.0799996 232.173335,29.16 C235.453351,29.3200008 237.913327,29.8466622 239.553335,30.74 C241.193343,31.6333378 242.013335,33.1066564 242.013335,35.16 C242.013335,36.5200068 241.540006,37.7066616 240.593335,38.72 C239.646663,39.7333384 238.420009,40.506664 236.913335,41.04 C235.406661,41.573336 233.84001,41.84 232.213335,41.84 C229.91999,41.84 228.026676,41.5866692 226.533335,41.08 C225.039994,40.5733308 223.946672,39.9066708 223.253335,39.08 C222.559998,38.2533292 222.213335,37.373338 222.213335,36.44 C222.213335,35.3199944 222.586664,34.3400042 223.333335,33.5 C224.080005,32.6599958 224.93333,32.040002 225.893335,31.64 C224.986664,31.3466652 224.300004,30.9466692 223.833335,30.44 C223.366666,29.9333308 223.133335,29.280004 223.133335,28.48 C223.133335,27.5199952 223.513331,26.640004 224.273335,25.84 C225.033339,25.039996 225.986662,24.5466676 227.133335,24.36 C225.879995,23.7733304 224.893338,22.9533386 224.173335,21.9 C223.453331,20.8466614 223.093335,19.6400068 223.093335,18.28 C223.093335,16.7333256 223.499997,15.360006 224.313335,14.16 C225.126672,12.959994 226.179995,12.02667 227.473335,11.36 C228.766675,10.69333 230.119994,10.36 231.533335,10.36 C233.346677,10.36 235.039994,10.8533284 236.613335,11.84 C237.013337,10.6933276 237.659997,9.7600036 238.553335,9.04 C239.446673,8.3199964 240.41333,7.96 241.453335,7.96 C242.120005,7.96 242.64,8.1399982 243.013335,8.5 Z M250.951113,11 L257.671113,11 L257.671113,12.56 L250.951113,12.64 C250.924446,16.7200204 250.904446,19.5466588 250.891113,21.12 C250.877779,22.6933412 250.871113,23.5733324 250.871113,23.76 C250.871113,25.6533428 251.097777,27.0599954 251.551113,27.98 C252.004448,28.9000046 252.791107,29.36 253.911113,29.36 C254.60445,29.36 255.291109,29.1466688 255.971113,28.72 C256.651116,28.2933312 257.244444,27.7066704 257.751113,26.96 L258.831113,27.84 C257.791108,29.3866744 256.764451,30.4066642 255.751113,30.9 C254.737774,31.3933358 253.751118,31.64 252.791113,31.64 C249.137761,31.64 247.324446,29.1866912 247.351113,24.28 L247.431113,12.68 L244.351113,12.72 L244.351113,11 C245.631119,10.9733332 246.717775,10.393339 247.611113,9.26 C248.504451,8.126661 249.164444,6.8400072 249.591113,5.4 L250.951113,5.4 L250.951113,11 Z M302.666669,12.54 C303.733341,13.9933406 304.266669,16.253318 304.266669,19.32 L304.266669,26.76 C304.266669,27.960006 304.213336,28.8666636 304.106669,29.48 L306.626669,29.36 L306.626669,31 L298.466669,31 L298.466669,29.8 C299.240006,29.8 299.793334,29.6066686 300.126669,29.22 C300.460004,28.8333314 300.660002,28.340003 300.726669,27.74 C300.793336,27.139997 300.826669,26.2000064 300.826669,24.92 L300.826669,19.32 C300.800002,17.0266552 300.426672,15.3000058 299.706669,14.14 C298.986665,12.9799942 297.853343,12.4 296.306669,12.4 C295.346664,12.4 294.39334,12.6399976 293.446669,13.12 C292.499997,13.6000024 291.720005,14.2266628 291.106669,15 C291.133335,15.2933348 291.146669,15.8133296 291.146669,16.56 L291.106669,26.76 C291.106669,27.960006 291.053336,28.8666636 290.946669,29.48 L293.466669,29.36 L293.466669,31 L285.306669,31 L285.306669,29.8 C286.080006,29.8 286.633334,29.6066686 286.966669,29.22 C287.300004,28.8333314 287.493335,28.3533362 287.546669,27.78 C287.600002,27.2066638 287.640002,26.25334 287.666669,24.92 L287.706669,15.8 C287.706669,14.6799944 287.760001,13.8133364 287.866669,13.2 L285.026669,13.36 L285.026669,11.68 C286.60001,11.68 287.679999,11.5933342 288.266669,11.42 C288.853338,11.2466658 289.346667,10.9733352 289.746669,10.6 L290.906669,10.6 C290.960002,11.1066692 291.013335,11.9199944 291.066669,13.04 C291.97334,12.239996 293.006663,11.5933358 294.166669,11.1 C295.326674,10.6066642 296.466663,10.36 297.586669,10.36 C299.90668,10.36 301.599997,11.0866594 302.666669,12.54 Z" id="erika-carrington" fill="#19ADCC"></path>
            </g>
        </g>
    </g>
</svg>