<?xml version="1.0" encoding="UTF-8"?>
<svg width="203px" height="27px" viewBox="0 0 203 27" version="1.1" xmlns="http://www.w3.org/2000/svg" xmlns:xlink="http://www.w3.org/1999/xlink">
    <!-- Generator: Sketch 48.2 (47327) - http://www.bohemiancoding.com/sketch -->
    <title>logo</title>
    <desc>Created with Sketch.</desc>
    <defs></defs>
    <g id="Letter_2" stroke="none" stroke-width="1" fill="none" fill-rule="evenodd" transform="translate(-142.000000, -384.000000)">
        <g id="logo" transform="translate(141.000000, 371.000000)" fill="#888888">
            <path d="M10.4219036,19.9473684 C11.2358185,20.3859671 11.8816327,21.0394693 12.3593654,21.9078947 C12.8370981,22.7763201 13.0759609,23.8420989 13.0759609,25.1052632 L3.73367906,25.2631579 C3.71598526,27.3684316 4.06543265,29.0087661 4.78203171,30.1842105 C5.49863078,31.359655 6.60890033,31.9473684 8.11287367,31.9473684 C8.92678866,31.9473684 9.76280836,31.7368442 10.6209579,31.3157895 C11.4791074,30.8947347 12.1381917,30.3771961 12.5982306,29.7631579 L13.2352043,30.2894737 C12.5628398,31.3070226 11.691433,32.0614011 10.6209579,32.5526316 C9.55048271,33.0438621 8.50214055,33.2894737 7.47589991,33.2894737 C6.25502743,33.2894737 5.15360465,33.0043888 4.17159852,32.4342105 C3.1895924,31.8640322 2.41550008,31.0482509 1.84929835,29.9868421 C1.28309662,28.9254333 1,27.7017613 1,26.3157895 C1,25.0877132 1.28309662,23.9342159 1.84929835,22.8552632 C2.41550008,21.7763104 3.20728593,20.9122839 4.22467967,20.2631579 C5.2420734,19.6140318 6.3965768,19.2894737 7.6882245,19.2894737 C8.69677133,19.2894737 9.60798857,19.5087697 10.4219036,19.9473684 Z M25.4291234,19.7105263 C25.7829995,19.9912295 25.9599349,20.4035061 25.9599349,20.9473684 C25.9599349,21.2280716 25.8493503,21.5087705 25.6281777,21.7894737 C25.4070052,22.0701768 25.0929448,22.2105263 24.6859873,22.2105263 C24.2967237,22.2105263 23.97824,22.0657909 23.7305267,21.7763158 C23.4828134,21.4868407 23.385499,21.1403529 23.4385804,20.7368421 C22.7662158,20.7192982 22.089438,20.9736816 21.4082265,21.5 C20.7270151,22.0263184 20.1475517,22.7280658 19.669819,23.6052632 L19.6963595,30.0789474 C19.6963595,30.868425 19.6609725,31.4649103 19.5901973,31.8684211 L21.2622534,31.7894737 L21.2622534,32.8684211 L15.8214358,32.8684211 L15.8214358,32.0789474 C16.3345561,32.0789474 16.7016971,31.9517557 16.9228696,31.6973684 C17.1440422,31.4429812 17.2767437,31.118423 17.3209782,30.7236842 C17.3652127,30.3289454 17.3873297,29.7105305 17.3873297,28.8684211 L17.3873297,22.8684211 C17.3873297,22.1315753 17.4227167,21.5614055 17.493492,21.1578947 L15.6091112,21.2368421 L15.6091112,20.1578947 L16.431869,20.1578947 C17.1042336,20.1578947 17.5908059,20.1008778 17.8916006,19.9868421 C18.1923952,19.8728064 18.4754918,19.6929837 18.7408989,19.4473684 L19.5105755,19.4473684 C19.5813507,20.1315824 19.6255846,20.9999947 19.6432784,22.0526316 C20.0856235,21.3333297 20.7181675,20.6929853 21.5409294,20.1315789 C22.3636913,19.5701726 23.2174045,19.2894737 24.1020947,19.2894737 C24.6329089,19.2894737 25.0752473,19.4298232 25.4291234,19.7105263 Z M31.3727374,14.1710526 C31.6469914,14.4780717 31.7841163,14.850875 31.7841163,15.2894737 C31.7841163,15.7105284 31.6381446,16.0745599 31.3461969,16.3815789 C31.0542491,16.688598 30.7136485,16.8421053 30.3243848,16.8421053 C29.9528149,16.8421053 29.6254844,16.688598 29.3423836,16.3815789 C29.0592827,16.0745599 28.9177344,15.7105284 28.9177344,15.2894737 C28.9177344,14.8684189 29.0637061,14.5000016 29.3556538,14.1842105 C29.6476016,13.8684195 29.9793555,13.7105263 30.3509254,13.7105263 C30.7578828,13.7105263 31.0984835,13.8640336 31.3727374,14.1710526 Z M31.5452512,30.0789474 C31.5452512,30.868425 31.5098641,31.4649103 31.4390889,31.8684211 L33.111145,31.7894737 L33.111145,32.8684211 L27.696868,32.8684211 L27.696868,32.0789474 C28.2099883,32.0789474 28.5771293,31.9517557 28.7983018,31.6973684 C29.0194744,31.4429812 29.1521759,31.118423 29.1964104,30.7236842 C29.2406449,30.3289454 29.2627618,29.7105305 29.2627618,28.8684211 L29.2627618,22.8684211 C29.2627618,22.3596466 29.2981489,21.7894768 29.3689241,21.1578947 L27.4845434,21.2631579 L27.4845434,20.1578947 C28.5284779,20.1578947 29.2760299,20.0964918 29.7272219,19.9736842 C30.1784139,19.8508766 30.5278613,19.6754397 30.7755745,19.4473684 L31.5452512,19.4473684 L31.5452512,30.0789474 Z M39.1211104,25.4473684 L40.1827334,25.4473684 L43.4206833,22.0789474 C44.0930479,21.3771895 44.6150073,20.9122818 44.9865772,20.6842105 L43.1818182,20.7631579 L43.1818182,19.7105263 L48.0122025,19.7105263 L48.0122025,20.5 C47.2336752,20.5877197 46.5259336,20.8684187 45.8889567,21.3421053 C45.2519797,21.8157918 44.5442382,22.4561363 43.7657108,23.2631579 L41.6955461,25.4210526 C42.0140345,25.5614042 42.2927078,25.741227 42.5315741,25.9605263 C42.7704405,26.1798257 43.0402669,26.4736824 43.3410616,26.8421053 L45.2254423,29.2368421 C45.2608299,29.27193 45.4598822,29.5394712 45.8226052,30.0394737 C46.1853282,30.5394762 46.6188199,31.0043838 47.1230933,31.4342105 C47.6273667,31.8640372 48.0652818,32.0789474 48.4368517,32.0789474 L48.4368517,32.8684211 L46.0216595,32.8684211 C45.5970082,32.8684211 45.1989036,32.6842124 44.8273337,32.3157895 C44.4557638,31.9473666 43.9161109,31.3070221 43.2083587,30.3947368 L42.1732764,28.9473684 C41.7840127,28.4035061 41.4168718,27.8991251 41.0718426,27.4342105 C40.7268134,26.9692959 40.4392934,26.63158 40.209274,26.4210526 L39.1211104,26.4736842 L39.1211104,30.0789474 C39.1211104,30.868425 39.0857234,31.4649103 39.0149481,31.8684211 L40.7135448,31.7894737 L40.7135448,32.8684211 L35.2992679,32.8684211 L35.2992679,32.0789474 C35.8123882,32.0789474 36.1795291,31.9517557 36.4007017,31.6973684 C36.6218742,31.4429812 36.7501524,31.1228089 36.78554,30.7368421 C36.8209276,30.3508753 36.8386211,29.7280745 36.8386211,28.8684211 C36.8386211,28.6929816 36.8430445,27.7368508 36.8518914,26 C36.8607383,24.2631492 36.8651617,21.0701987 36.8651617,16.4210526 C36.8651617,15.7543826 36.891702,15.1842129 36.9447834,14.7105263 L35.0604027,14.8157895 L35.0604027,13.7105263 C36.1043372,13.7105263 36.8518892,13.6491234 37.3030812,13.5263158 C37.7542732,13.4035082 38.1037206,13.2280713 38.3514338,13 L39.1211104,13 L39.1211104,25.4473684 Z M59.250661,20.4605263 C59.9584131,21.241232 60.3034371,22.4736758 60.2857433,24.1578947 L60.2592027,30.0789474 C60.2592027,30.6403537 60.2238157,31.2368389 60.1530405,31.8684211 L62.0374212,31.7631579 L62.0374212,32.8684211 L58.2421192,32.8684211 C58.1890378,32.6052618 58.1271104,32.1052668 58.0563352,31.3684211 C56.7646875,32.6491292 55.3757447,33.2894737 53.8894651,33.2894737 C52.5978174,33.2894737 51.6114026,33.0000029 50.9301912,32.4210526 C50.2489797,31.8421024 49.9083791,31.0877239 49.9083791,30.1578947 C49.9083791,29.1403458 50.3197539,28.2807053 51.1425158,27.5789474 C51.9652777,26.8771895 53.0003497,26.3552649 54.2477629,26.0131579 C54.9748527,25.8137512 55.7034389,25.6754405 56.4335291,25.5982249 C56.9559996,25.5429674 57.4792404,25.5189978 58.003254,25.5263158 L58.003254,23.8947368 C58.003254,22.7543803 57.8351654,21.8640383 57.4989831,21.2236842 C57.1628008,20.5833301 56.4462125,20.2631579 55.3491967,20.2631579 C54.8006887,20.2631579 54.2787293,20.3771918 53.7833028,20.6052632 C53.2878763,20.8333345 52.9251588,21.1754363 52.6951393,21.6315789 C52.9251588,21.8771942 53.0401668,22.2105242 53.0401668,22.6315789 C53.0401668,22.8947382 52.9428523,23.1447357 52.7482205,23.3815789 C52.5535886,23.6184222 52.270492,23.7368421 51.8989221,23.7368421 C51.5273522,23.7368421 51.2354088,23.6184222 51.0230832,23.3815789 C50.8107575,23.1447357 50.7045963,22.8333353 50.7045963,22.4473684 C50.7045963,21.8684182 50.9301889,21.3377217 51.3813809,20.8552632 C51.8325729,20.3728046 52.4606936,19.9912295 53.2657617,19.7105263 C54.0708297,19.4298232 54.9687768,19.2894737 55.9596299,19.2894737 C57.4459094,19.2894737 58.5429088,19.6798207 59.250661,20.4605263 Z M81.0109823,19.7368421 C81.7541221,20.0350892 82.3335855,20.4298221 82.7493899,20.9210526 C83.1651943,21.4122832 83.3730933,21.9473655 83.3730933,22.5263158 C83.3730933,22.9298266 83.2580853,23.2631566 83.0280659,23.5263158 C82.7980464,23.789475 82.4795627,23.9210526 82.0726052,23.9210526 C81.6833416,23.9210526 81.3913982,23.7938609 81.1967663,23.5394737 C81.0021345,23.2850864 80.90482,23.0175453 80.90482,22.7368421 C80.90482,22.2982434 81.0375216,21.9473697 81.3029286,21.6842105 C81.1082968,21.1403482 80.7323091,20.7675449 80.1749542,20.5657895 C79.6175994,20.3640341 79.0646763,20.2631579 78.5161684,20.2631579 C77.7022534,20.2631579 76.972395,20.4824539 76.3265711,20.9210526 C75.6807473,21.3596513 75.172058,21.9999958 74.8004881,22.8421053 C74.4289182,23.6842147 74.2431361,24.6929766 74.2431361,25.8684211 C74.2431361,27.0438655 74.4333416,28.0877147 74.8137584,29 C75.1941752,29.9122853 75.7294048,30.6271904 76.4194631,31.1447368 C77.1095215,31.6622833 77.9057307,31.9210526 78.8081147,31.9210526 C79.6043359,31.9210526 80.387275,31.7061425 81.1569555,31.2763158 C81.9266359,30.8464891 82.5326396,30.3070208 82.9749847,29.6578947 L83.6650397,30.1842105 C83.0103689,31.2017595 82.1655024,31.9736816 81.1304149,32.5 C80.0953274,33.0263184 79.0823723,33.2894737 78.0915192,33.2894737 C76.8883406,33.2894737 75.7869178,33.0175466 74.7872178,32.4736842 C73.7875179,31.9298218 72.9957321,31.1491279 72.4118365,30.1315789 C71.827941,29.11403 71.5359976,27.9122876 71.5359976,26.5263158 C71.5359976,25.2982395 71.8323644,24.1271986 72.4251068,23.0131579 C73.0178492,21.8991172 73.8405988,21.0000034 74.8933801,20.3157895 C75.9461615,19.6315755 77.136052,19.2894737 78.4630873,19.2894737 C79.4185527,19.2894737 80.2678425,19.438595 81.0109823,19.7368421 Z M95.1423632,20.4605263 C95.8501154,21.241232 96.1951394,22.4736758 96.1774456,24.1578947 L96.150905,30.0789474 C96.150905,30.6403537 96.1155179,31.2368389 96.0447427,31.8684211 L97.9291234,31.7631579 L97.9291234,32.8684211 L94.1338214,32.8684211 C94.08074,32.6052618 94.0188126,32.1052668 93.9480374,31.3684211 C92.6563897,32.6491292 91.2674469,33.2894737 89.7811674,33.2894737 C88.4895197,33.2894737 87.5031049,33.0000029 86.8218935,32.4210526 C86.140682,31.8421024 85.8000814,31.0877239 85.8000814,30.1578947 C85.8000814,29.1403458 86.2114562,28.2807053 87.0342181,27.5789474 C87.8569799,26.8771895 88.892052,26.3552649 90.1394651,26.0131579 C91.3868783,25.6710509 92.6386962,25.5087718 93.8949563,25.5263158 L93.8949563,23.8947368 C93.8949563,22.7543803 93.7268677,21.8640383 93.3906854,21.2236842 C93.0545031,20.5833301 92.3379148,20.2631579 91.2408989,20.2631579 C90.692391,20.2631579 90.1704316,20.3771918 89.6750051,20.6052632 C89.1795786,20.8333345 88.8168611,21.1754363 88.5868416,21.6315789 C88.8168611,21.8771942 88.9318691,22.2105242 88.9318691,22.6315789 C88.9318691,22.8947382 88.8345546,23.1447357 88.6399227,23.3815789 C88.4452909,23.6184222 88.1621943,23.7368421 87.7906244,23.7368421 C87.4190545,23.7368421 87.1271111,23.6184222 86.9147855,23.3815789 C86.7024598,23.1447357 86.5962986,22.8333353 86.5962986,22.4473684 C86.5962986,21.8684182 86.8218912,21.3377217 87.2730832,20.8552632 C87.7242752,20.3728046 88.3523958,19.9912295 89.1574639,19.7105263 C89.962532,19.4298232 90.8604791,19.2894737 91.8513321,19.2894737 C93.3376117,19.2894737 94.4346111,19.6798207 95.1423632,20.4605263 Z M109.751474,19.7105263 C110.105351,19.9912295 110.282286,20.4035061 110.282286,20.9473684 C110.282286,21.2280716 110.171701,21.5087705 109.950529,21.7894737 C109.729356,22.0701768 109.415296,22.2105263 109.008338,22.2105263 C108.619075,22.2105263 108.300591,22.0657909 108.052878,21.7763158 C107.805165,21.4868407 107.70785,21.1403529 107.760931,20.7368421 C107.088567,20.7192982 106.411789,20.9736816 105.730578,21.5 C105.049366,22.0263184 104.469903,22.7280658 103.99217,23.6052632 L104.018711,30.0789474 C104.018711,30.868425 103.983324,31.4649103 103.912548,31.8684211 L105.584604,31.7894737 L105.584604,32.8684211 L100.143787,32.8684211 L100.143787,32.0789474 C100.656907,32.0789474 101.024048,31.9517557 101.245221,31.6973684 C101.466393,31.4429812 101.599095,31.118423 101.643329,30.7236842 C101.687564,30.3289454 101.709681,29.7105305 101.709681,28.8684211 L101.709681,22.8684211 C101.709681,22.1315753 101.745068,21.5614055 101.815843,21.1578947 L99.9314623,21.2368421 L99.9314623,20.1578947 L100.75422,20.1578947 C101.426585,20.1578947 101.913157,20.1008778 102.213952,19.9868421 C102.514746,19.8728064 102.797843,19.6929837 103.06325,19.4473684 L103.832927,19.4473684 C103.903702,20.1315824 103.947936,20.9999947 103.965629,22.0526316 C104.407975,21.3333297 105.040519,20.6929853 105.86328,20.1315789 C106.686042,19.5701726 107.539756,19.2894737 108.424446,19.2894737 C108.95526,19.2894737 109.397598,19.4298232 109.751474,19.7105263 Z M121.626907,19.7105263 C121.980783,19.9912295 122.157718,20.4035061 122.157718,20.9473684 C122.157718,21.2280716 122.047134,21.5087705 121.825961,21.7894737 C121.604788,22.0701768 121.290728,22.2105263 120.883771,22.2105263 C120.494507,22.2105263 120.176023,22.0657909 119.92831,21.7763158 C119.680597,21.4868407 119.583282,21.1403529 119.636364,20.7368421 C118.963999,20.7192982 118.287221,20.9736816 117.60601,21.5 C116.924798,22.0263184 116.345335,22.7280658 115.867602,23.6052632 L115.894143,30.0789474 C115.894143,30.868425 115.858756,31.4649103 115.787981,31.8684211 L117.460037,31.7894737 L117.460037,32.8684211 L112.019219,32.8684211 L112.019219,32.0789474 C112.532339,32.0789474 112.89948,31.9517557 113.120653,31.6973684 C113.341825,31.4429812 113.474527,31.118423 113.518761,30.7236842 C113.562996,30.3289454 113.585113,29.7105305 113.585113,28.8684211 L113.585113,22.8684211 C113.585113,22.1315753 113.6205,21.5614055 113.691275,21.1578947 L111.806894,21.2368421 L111.806894,20.1578947 L112.629652,20.1578947 C113.302017,20.1578947 113.788589,20.1008778 114.089384,19.9868421 C114.390178,19.8728064 114.673275,19.6929837 114.938682,19.4473684 L115.708359,19.4473684 C115.779134,20.1315824 115.823368,20.9999947 115.841062,22.0526316 C116.283407,21.3333297 116.915951,20.6929853 117.738713,20.1315789 C118.561475,19.5701726 119.415188,19.2894737 120.299878,19.2894737 C120.830692,19.2894737 121.273031,19.4298232 121.626907,19.7105263 Z M127.570521,14.1710526 C127.844775,14.4780717 127.9819,14.850875 127.9819,15.2894737 C127.9819,15.7105284 127.835928,16.0745599 127.54398,16.3815789 C127.252032,16.688598 126.911432,16.8421053 126.522168,16.8421053 C126.150598,16.8421053 125.823268,16.688598 125.540167,16.3815789 C125.257066,16.0745599 125.115518,15.7105284 125.115518,15.2894737 C125.115518,14.8684189 125.261489,14.5000016 125.553437,14.1842105 C125.845385,13.8684195 126.177139,13.7105263 126.548709,13.7105263 C126.955666,13.7105263 127.296267,13.8640336 127.570521,14.1710526 Z M127.743034,30.0789474 C127.743034,30.868425 127.707647,31.4649103 127.636872,31.8684211 L129.308928,31.7894737 L129.308928,32.8684211 L123.894651,32.8684211 L123.894651,32.0789474 C124.407772,32.0789474 124.774913,31.9517557 124.996085,31.6973684 C125.217258,31.4429812 125.349959,31.118423 125.394194,30.7236842 C125.438428,30.3289454 125.460545,29.7105305 125.460545,28.8684211 L125.460545,22.8684211 C125.460545,22.3596466 125.495932,21.7894768 125.566707,21.1578947 L123.682327,21.2631579 L123.682327,20.1578947 C124.726261,20.1578947 125.473813,20.0964918 125.925005,19.9736842 C126.376197,19.8508766 126.725645,19.6754397 126.973358,19.4473684 L127.743034,19.4473684 L127.743034,30.0789474 Z M143.254525,20.7236842 C143.962277,21.6798293 144.316148,23.1666566 144.316148,25.1842105 L144.316148,30.0789474 C144.316148,30.868425 144.280761,31.4649103 144.209986,31.8684211 L145.882042,31.7894737 L145.882042,32.8684211 L140.467765,32.8684211 L140.467765,32.0789474 C140.980885,32.0789474 141.348026,31.9517557 141.569199,31.6973684 C141.790371,31.4429812 141.923073,31.118423 141.967307,30.7236842 C142.011542,30.3289454 142.033659,29.7105305 142.033659,28.8684211 L142.033659,25.1842105 C142.015965,23.6754311 141.768255,22.5394775 141.290523,21.7763158 C140.81279,21.0131541 140.060815,20.6315789 139.034574,20.6315789 C138.397597,20.6315789 137.765053,20.7894721 137.136923,21.1052632 C136.508793,21.4210542 135.991257,21.8333308 135.584299,22.3421053 C135.601993,22.5350887 135.61084,22.8771905 135.61084,23.3684211 L135.584299,30.0789474 C135.584299,30.868425 135.548912,31.4649103 135.478137,31.8684211 L137.150193,31.7894737 L137.150193,32.8684211 L131.735916,32.8684211 L131.735916,32.0789474 C132.249037,32.0789474 132.616178,31.9517557 132.83735,31.6973684 C133.058523,31.4429812 133.186801,31.1271949 133.222188,30.75 C133.257576,30.3728051 133.284116,29.7456184 133.30181,28.8684211 L133.328351,22.8684211 C133.328351,22.1315753 133.363738,21.5614055 133.434513,21.1578947 L131.550132,21.2631579 L131.550132,20.1578947 C132.594067,20.1578947 133.310655,20.1008778 133.699919,19.9868421 C134.089182,19.8728064 134.416513,19.6929837 134.68192,19.4473684 L135.451597,19.4473684 C135.486984,19.7807034 135.522371,20.3157858 135.557759,21.0526316 C136.159348,20.5263132 136.844973,20.1008788 137.614653,19.7763158 C138.384334,19.4517528 139.140733,19.2894737 139.883872,19.2894737 C141.423233,19.2894737 142.546773,19.7675391 143.254525,20.7236842 Z M161.791641,18.0657895 C162.039355,18.3026328 162.163209,18.622805 162.163209,19.0263158 C162.163209,19.2719311 162.070318,19.5131567 161.884533,19.75 C161.698748,19.9868433 161.428922,20.1052632 161.075046,20.1052632 C160.774251,20.1052632 160.517695,20.0175447 160.305369,19.8421053 C160.093043,19.6666658 159.960342,19.4473697 159.907261,19.1842105 C159.482609,19.2368424 159.146432,19.425437 158.898719,19.75 C158.651005,20.074563 158.47407,20.46491 158.367907,20.9210526 C158.810252,21.3245634 159.155276,21.7982429 159.40299,22.3421053 C159.650703,22.8859676 159.774558,23.4561374 159.774558,24.0526316 C159.774558,24.2507716 159.76374,24.4448425 159.742104,24.6348443 C159.658375,25.3701273 159.412635,26.0444731 159.004881,26.6578947 C158.491761,27.4298284 157.806136,28.0350855 156.947987,28.4736842 C156.089837,28.9122829 155.16535,29.1315789 154.174497,29.1315789 C153.944477,29.1315789 153.652534,29.1140353 153.298658,29.0789474 C153.033251,29.0263155 152.732461,29 152.396278,29 C151.812383,29 151.321387,29.1271917 150.923276,29.3815789 C150.525166,29.6359662 150.326114,29.9473666 150.326114,30.3157895 C150.326114,30.8245639 150.649021,31.1622799 151.294844,31.3289474 C151.940668,31.4956149 153.042091,31.6052629 154.599146,31.6578947 C156.775484,31.7631584 158.407713,32.1096462 159.495882,32.6973684 C160.584051,33.2850907 161.128127,34.2543792 161.128127,35.6052632 C161.128127,36.5000045 160.814067,37.2806984 160.185937,37.9473684 C159.557807,38.6140384 158.743904,39.1228053 157.744204,39.4736842 C156.744504,39.8245632 155.705008,40 154.625686,40 C153.104019,40 151.847778,39.833335 150.856925,39.5 C149.866072,39.166665 149.140637,38.7280729 148.680598,38.1842105 C148.220559,37.6403482 147.990543,37.0614066 147.990543,36.4473684 C147.990543,35.7105226 148.238253,35.0657922 148.733679,34.5131579 C149.229106,33.9605236 149.795299,33.5526329 150.432276,33.2894737 C149.830686,33.0964903 149.375078,32.833335 149.065436,32.5 C148.755795,32.166665 148.600976,31.7368447 148.600976,31.2105263 C148.600976,30.5789442 148.853109,30.0000026 149.357383,29.4736842 C149.861656,28.9473658 150.4942,28.6228076 151.255034,28.5 C150.423425,28.1140332 149.768764,27.5745649 149.291031,26.8815789 C148.813298,26.188593 148.600976,25.5295856 148.600976,24.6348443 C148.600976,23.6172953 148.844262,22.5789513 149.383923,21.7894737 C149.923584,20.9999961 150.622479,20.3859671 151.480628,19.9473684 C152.338778,19.5087697 153.236725,19.2894737 154.174497,19.2894737 C155.377675,19.2894737 156.501215,19.6140318 157.54515,20.2631579 C157.810557,19.5087682 158.239625,18.8947392 158.832367,18.4210526 C159.42511,17.9473661 160.066501,17.7105263 160.756559,17.7105263 M150.485357,34.6842105 C150.21995,35.1403532 150.087248,35.6228045 150.087248,36.1315789 C150.087248,36.9912324 150.498623,37.679822 151.321385,38.1973684 C152.144147,38.7149149 153.236723,38.9736842 154.599146,38.9736842 C155.572305,38.9736842 156.426018,38.8464925 157.160311,38.5921053 C157.894604,38.337718 158.456374,37.9956162 158.845638,37.5657895 C159.234901,37.1359628 159.42953,36.6666692 159.42953,36.1578947 C159.42953,35.2631534 159.000462,34.6491245 158.142312,34.3157895 C157.284163,33.9824545 156.014652,33.7894739 154.33374,33.7368421 C153.21903,33.7017542 152.307813,33.6315795 151.600061,33.5263158 C151.122328,33.8421068 150.750764,34.2280679 150.485357,34.6842105 Z M167.058471,19.7105263 L171.517287,19.7105263 L171.517287,20.7368421 L167.058471,20.7894737 C167.040777,23.4736976 167.027507,25.3333282 167.01866,26.3684211 C167.009813,27.4035139 167.00539,27.9824555 167.00539,28.1052632 C167.00539,29.3508834 167.155785,30.2763128 167.456579,30.8815789 C167.757374,31.4868451 168.279333,31.7894737 169.022473,31.7894737 C169.482512,31.7894737 169.938121,31.6491242 170.389313,31.3684211 C170.840505,31.0877179 171.234186,30.7017568 171.570368,30.2105263 L172.286964,30.7894737 C171.596905,31.8070226 170.915704,32.4780686 170.243339,32.8026316 C169.570975,33.1271946 168.916314,33.2894737 168.279337,33.2894737 C165.855286,33.2894737 164.652125,31.6754547 164.669819,28.4473684 L164.7229,20.8157895 L162.679276,20.8421053 L162.679276,19.7105263 C163.528579,19.6929824 164.24959,19.3114072 164.842333,18.5657895 C165.435075,17.8201717 165.87299,16.9736889 166.156091,16.0263158 L167.058471,16.0263158 L167.058471,19.7105263 Z M183.89699,20.1710526 C184.923231,20.7587749 185.73271,21.5613984 186.325453,22.5789474 C186.918195,23.5964963 187.214562,24.7280639 187.214562,25.9736842 C187.214562,27.3070242 186.918195,28.5350821 186.325453,29.6578947 C185.73271,30.7807074 184.927654,31.6666634 183.91026,32.3157895 C182.892867,32.9649155 181.764904,33.2894737 180.526337,33.2894737 C179.305465,33.2894737 178.186348,33.0043888 177.168955,32.4342105 C176.151561,31.8640322 175.346505,31.0701805 174.753763,30.0526316 C174.16102,29.0350826 173.864653,27.8859713 173.864653,26.6052632 C173.864653,25.2368353 174.156597,23.9956196 174.740492,22.8815789 C175.324388,21.7675383 176.12502,20.8903541 177.142414,20.25 C178.159808,19.6096459 179.287771,19.2894737 180.526337,19.2894737 C181.74721,19.2894737 182.870749,19.5833304 183.89699,20.1710526 Z M201.372483,20.7236842 C202.080235,21.6798293 202.434106,23.1666566 202.434106,25.1842105 L202.434106,30.0789474 C202.434106,30.868425 202.398719,31.4649103 202.327944,31.8684211 L204,31.7894737 L204,32.8684211 L198.585723,32.8684211 L198.585723,32.0789474 C199.098843,32.0789474 199.465984,31.9517557 199.687157,31.6973684 C199.908329,31.4429812 200.041031,31.118423 200.085265,30.7236842 C200.1295,30.3289454 200.151617,29.7105305 200.151617,28.8684211 L200.151617,25.1842105 C200.133923,23.6754311 199.886214,22.5394775 199.408481,21.7763158 C198.930748,21.0131541 198.178773,20.6315789 197.152532,20.6315789 C196.515555,20.6315789 195.883011,20.7894721 195.254881,21.1052632 C194.626751,21.4210542 194.109215,21.8333308 193.702258,22.3421053 C193.719951,22.5350887 193.728798,22.8771905 193.728798,23.3684211 L193.702258,30.0789474 C193.702258,30.868425 193.66687,31.4649103 193.596095,31.8684211 L195.268151,31.7894737 L195.268151,32.8684211 L189.853874,32.8684211 L189.853874,32.0789474 C190.366995,32.0789474 190.734136,31.9517557 190.955308,31.6973684 C191.176481,31.4429812 191.304759,31.1271949 191.340146,30.75 C191.375534,30.3728051 191.402074,29.7456184 191.419768,28.8684211 L191.446309,22.8684211 C191.446309,22.1315753 191.481696,21.5614055 191.552471,21.1578947 L189.66809,21.2631579 L189.66809,20.1578947 C190.712025,20.1578947 191.428613,20.1008778 191.817877,19.9868421 C192.20714,19.8728064 192.534471,19.6929837 192.799878,19.4473684 L193.569555,19.4473684 C193.604942,19.7807034 193.640329,20.3157858 193.675717,21.0526316 C194.277306,20.5263132 194.962931,20.1008788 195.732611,19.7763158 C196.502292,19.4517528 197.258691,19.2894737 198.00183,19.2894737 C199.541191,19.2894737 200.664731,19.7675391 201.372483,20.7236842 Z" id="erika-carrington"></path>
        </g>
    </g>
</svg>